<svg xmlns="http://www.w3.org/2000/svg" viewBox="0 0 75 75"><defs><style>.cls-1{fill:#fff}</style></defs><title>instagramIcon</title><g id="Layer_2" data-name="Layer 2"><g id="Layer_1-2" data-name="Layer 1"><path class="cls-1" d="M44.67 23.32H29.16A6.29 6.29 0 0 0 23 29.66V44.9a6.29 6.29 0 0 0 6.2 6.34h15.47a6.29 6.29 0 0 0 6.2-6.34V29.66a6.29 6.29 0 0 0-6.2-6.34zM36.91 46a8.73 8.73 0 1 1 8.55-8.73A8.64 8.64 0 0 1 36.91 46zm9-15.95a2 2 0 1 1 1.93-2 2 2 0 0 1-1.92 2.01z"/><path class="cls-1" d="M36.91 31.65a5.64 5.64 0 1 0 5.52 5.63 5.57 5.57 0 0 0-5.52-5.63z"/><path class="cls-1" d="M37.5 0A37.5 37.5 0 1 0 75 37.5 37.5 37.5 0 0 0 37.5 0zm16.41 45.13a9.08 9.08 0 0 1-9 9.15H28.88a9.09 9.09 0 0 1-9-9.15v-15.7a9.09 9.09 0 0 1 9-9.15H45a9.08 9.08 0 0 1 9 9.15z"/></g></g></svg>